<?xml version="1.0" encoding="UTF-8"?>
<svg id="Layer_1" data-name="Layer 1" xmlns="http://www.w3.org/2000/svg" xmlns:xlink="http://www.w3.org/1999/xlink" viewBox="0 0 134 66">
  <defs>
    <style>
      .cls-1 {
        fill: #fffffd;
      }

      .cls-2 {
        clip-path: url(#clippath);
      }

      .cls-3 {
        fill: none;
      }
    </style>
    <clipPath id="clippath">
      <rect class="cls-3" y="16" width="134" height="34"/>
    </clipPath>
  </defs>
  <path class="cls-1" d="M42.62,20.37v-1.58c0-.21-.04-.4-.13-.58-.06-.19-.16-.35-.31-.48-.14-.15-.3-.25-.48-.31-.18-.09-.37-.14-.58-.13l-.4,.05c-.25,.07-.47,.2-.66,.39-.27,.29-.44,.65-.44,1.06v1.58c0,.21,.04,.4,.13,.58,.06,.19,.16,.35,.31,.48,.14,.15,.3,.25,.48,.31,.18,.09,.37,.14,.58,.13l.4-.05c.25-.07,.47-.2,.66-.39,.27-.29,.44-.65,.44-1.06h0Z"/>
  <path class="cls-1" d="M83.36,16.75c-10.29-.3-20.58-.19-30.86,.3-1.92,.09-1.93,3.09,0,3,10.28-.5,20.57-.6,30.86-.3,1.93,.06,1.93-2.94,0-3h0Z"/>
  <path class="cls-1" d="M51.72,19.62c-.34,8.37-.47,16.75-.38,25.13,.02,1.93,3.02,1.93,3,0-.09-8.38,.04-16.76,.38-25.13,.08-1.93-2.92-1.93-3,0h0Z"/>
  <path class="cls-1" d="M51.2,45.63c.17,1.17-.2,2.15,.96,2.97,1.05,.74,2.8,.61,4.01,.66,3.19,.14,6.4,.07,9.59,.08s6.38,.02,9.57,.04c1.64,0,3.27,.01,4.91,.02,1.31,0,2.45,.03,3.24-1.16,1.07-1.61-1.52-3.11-2.59-1.51,.49-.33,.44-.43-.16-.32h-.98c-.65,0-1.31,0-1.96-.01-1.31,0-2.62-.01-3.93-.02-2.54,0-5.07-.02-7.61-.03s-5.08-.01-7.62-.03c-1.31-.01-2.63-.03-3.94-.14-.29-.02-.58-.05-.87-.09,.27,.54,.38,.57,.34,.1,.14-.4-.01-.96-.07-1.35-.28-1.9-3.17-1.09-2.89,.8h0Z"/>
  <g class="cls-2">
    <image width="750" height="750" transform="translate(35) scale(.09)" xlink:href="../JPEG/Artboard 6.png"/>
  </g>
</svg>