<?xml version="1.0" encoding="UTF-8"?>
<svg id="Layer_1" data-name="Layer 1" xmlns="http://www.w3.org/2000/svg" xmlns:xlink="http://www.w3.org/1999/xlink" viewBox="0 0 134 46">
  <defs>
    <style>
      .cls-1 {
        fill: #fffffd;
      }

      .cls-2 {
        clip-path: url(#clippath);
      }

      .cls-3 {
        fill: none;
      }
    </style>
    <clipPath id="clippath">
      <rect class="cls-3" y="6" width="134" height="34"/>
    </clipPath>
  </defs>
  <g class="cls-2">
    <image width="750" height="750" transform="translate(46) scale(.06)" xlink:href="../JPEG/Artboard 1 copy 2.png"/>
  </g>
  <path class="cls-1" d="M81.37,8.86c-.8,8.85,1.11,17.57,1.43,26.39,.07,1.92,3.07,1.93,3,0-.32-8.82-2.23-17.54-1.43-26.39,.17-1.92-2.83-1.91-3,0h0Z"/>
  <path class="cls-1" d="M42.62,10.38v-1.58c0-.21-.04-.4-.13-.58-.06-.19-.16-.35-.31-.48-.14-.15-.3-.25-.48-.31-.18-.09-.37-.14-.58-.13l-.4,.05c-.25,.07-.47,.2-.66,.39-.27,.29-.44,.65-.44,1.06v1.58c0,.21,.04,.4,.13,.58,.06,.19,.16,.35,.31,.48,.14,.15,.3,.25,.48,.31,.18,.09,.37,.14,.58,.13l.4-.05c.25-.07,.47-.2,.66-.39,.27-.29,.44-.65,.44-1.06h0Z"/>
</svg>