<svg width="28" height="28" viewBox="0 0 28 28" fill="none">
<path d="M14.1431 19.8501V22.5801" stroke="currentColor" strokeWidth="1.5" strokeLinecap="round" strokeLinejoin="round"/>
<path d="M7.64307 27.0001H20.6431V25.7001C20.6431 24.2701 19.4731 23.1001 18.0431 23.1001H10.2431C8.81307 23.1001 7.64307 24.2701 7.64307 25.7001V27.0001V27.0001Z" stroke="currentColor" strokeWidth="1.5" strokeMiterlimit="10"/>
<path d="M6.34277 27H21.9428" stroke="currentColor" strokeWidth="1.5" strokeLinecap="round" strokeLinejoin="round"/>
<path d="M13.9481 19.2C8.91714 19.2 4.84814 15.131 4.84814 10.1V6.2C4.84814 3.327 7.17514 1 10.0481 1H17.8481C20.7211 1 23.0481 3.327 23.0481 6.2V10.1C23.0481 15.131 18.9791 19.2 13.9481 19.2Z" stroke="currentColor" strokeWidth="1.5" strokeLinecap="round" strokeLinejoin="round"/>
<path d="M5.459 13.5447C4.484 13.2327 3.626 12.6607 2.95 11.9847C1.78 10.6847 1 9.12469 1 7.30469C1 5.48469 2.43 4.05469 4.25 4.05469H5.095C4.835 4.65269 4.705 5.31569 4.705 6.00469V9.90469C4.705 11.2047 4.978 12.4267 5.459 13.5447Z" stroke="currentColor" strokeWidth="1.5" strokeLinecap="round" strokeLinejoin="round"/>
<path d="M22.437 13.5447C23.412 13.2327 24.27 12.6607 24.946 11.9847C26.116 10.6847 26.896 9.12469 26.896 7.30469C26.896 5.48469 25.466 4.05469 23.646 4.05469H22.801C23.061 4.65269 23.191 5.31569 23.191 6.00469V9.90469C23.191 11.2047 22.918 12.4267 22.437 13.5447Z" stroke="currentColor" strokeWidth="1.5" strokeLinecap="round" strokeLinejoin="round"/>
</svg>
