<svg width="32" height="32" viewBox="0 0 32 32" fill="none">
<path d="M11.005 19.2104H4C2.35 19.2104 1 20.5368 1 22.1579V31.0004H11.005V19.2104Z" stroke="currentColor" strokeWidth="1.5" strokeMiterlimit="10" strokeLinecap="round" strokeLinejoin="round"/>
<path d="M17.9947 13.3154H13.9897C12.3397 13.3154 10.9897 14.6418 10.9897 16.2629V31.0004H20.9947V16.2629C20.9947 14.6418 19.6597 13.3154 17.9947 13.3154Z" stroke="currentColor" strokeWidth="1.5" strokeMiterlimit="10" strokeLinecap="round" strokeLinejoin="round"/>
<path d="M28.0001 23.6313H20.9951V31.0001H31.0001V26.5788C31.0001 24.9577 29.6501 23.6313 28.0001 23.6313Z" stroke="currentColor" strokeWidth="1.5" strokeMiterlimit="10" strokeLinecap="round" strokeLinejoin="round"/>
<path d="M16.7799 1.62821L17.5748 3.19038C17.6798 3.41144 17.9649 3.61776 18.2049 3.64724L19.6448 3.88304C20.5598 4.03042 20.7848 4.69358 20.1248 5.32729L18.9998 6.4326C18.8048 6.62419 18.6998 6.9779 18.7598 7.22844L19.0748 8.5843C19.3298 9.66014 18.7448 10.0728 17.7848 9.51277L16.4349 8.73169C16.1949 8.58431 15.7899 8.58431 15.5499 8.73169L14.1999 9.51277C13.2399 10.0728 12.6549 9.66014 12.9099 8.5843L13.2249 7.22844C13.2849 6.9779 13.1799 6.60945 12.9849 6.4326L11.8749 5.34204C11.2149 4.69359 11.4249 4.04513 12.3549 3.89775L13.7949 3.66199C14.0349 3.61778 14.3199 3.41146 14.4249 3.20513L15.2199 1.64292C15.6549 0.788145 16.3449 0.788176 16.7799 1.62821Z" stroke="currentColor" strokeWidth="1.5" strokeLinecap="round" strokeLinejoin="round"/>
</svg>
