<svg width="28" height="28" viewBox="0 0 28 28" fill="none">
<path d="M20.2011 23.0768H7.99034C7.44475 23.0768 6.83421 22.6481 6.65235 22.1285L1.27442 7.08589C0.508002 4.92953 1.40432 4.26703 3.24893 5.59202L8.31509 9.21628C9.15945 9.80084 10.1207 9.50207 10.4845 8.55378L12.7707 2.46139C13.4982 0.512869 14.7063 0.512869 15.4337 2.46139L17.72 8.55378C18.0837 9.50207 19.045 9.80084 19.8763 9.21628L24.6307 5.82585C26.6572 4.37095 27.6315 5.11139 26.8001 7.46261L21.5521 22.1545C21.3572 22.6481 20.7467 23.0768 20.2011 23.0768Z" stroke="currentColor" stroke-width="1.5" stroke-linecap="round" stroke-linejoin="round"/>
<path d="M6.95117 27H21.2404" stroke="currentColor" stroke-width="1.5" stroke-linecap="round" stroke-linejoin="round"/>
<path d="M10.8481 16.6079H17.3432" stroke="currentColor" stroke-width="1.5" stroke-linecap="round" stroke-linejoin="round"/>
</svg>
