<?xml version="1.0" encoding="UTF-8"?>
<svg id="Layer_1" data-name="Layer 1" xmlns="http://www.w3.org/2000/svg" viewBox="0 0 175.98 195.77">
  <defs>
    <style>
      .cls-1 {
        fill: #673c8b;
      }
    </style>
  </defs>
  <path class="cls-1" d="M99.17,112.75c0,25.5-.05,50.99,.07,76.5,0,2.91-1.02,4.37-3.64,5.22-6.65,2.17-13.01,1.63-19.18-1.68-1.65-.89-1.71-2.26-1.71-3.81,0-13.76-.03-27.53-.04-41.28,0-17.91,.27-35.83-.07-53.73-.37-19.14-.21-38.28-.32-57.41-.02-2.75-.27-2.89-2.59-1.55-6.57,3.78-13.16,7.54-19.7,11.38-1.73,1.01-2.59,.9-2.59-1.31,0-8.21,.03-16.41,0-24.62,0-1.64,.77-2.54,2.12-3.31,7.58-4.33,15.16-8.66,22.67-13.12,9.65-5.75,18.99-5.13,28.44,.61,9.19,5.59,18.58,10.86,27.88,16.26,4.89,2.83,9.77,5.65,14.69,8.42,1.24,.69,1.72,1.62,1.71,3-.02,8.99,0,18-.02,26.99,0,.59,.17,1.29-.43,1.7-.5,.34-.82-.13-1.09-.46-4.46-5.46-11.03-7.83-16.78-11.33-8.82-5.35-17.86-10.34-26.81-15.47-.67-.38-1.33-1.26-2.08-.92-.97,.45-.5,1.58-.5,2.4-.03,25.85-.02,51.7-.02,77.55h0Z"/>
  <path class="cls-1" d="M.06,97.8C.06,85.7,.25,73.61,0,61.53c-.21-10.22,4.48-17.28,13.06-22.21,10.1-5.8,20.18-11.62,30.27-17.43,2.34-1.35,2.8-1.09,2.88,1.68,.23,7.76-.35,15.53,.49,23.27,.19,1.78-.5,2.97-2.13,3.84-2.95,1.58-5.86,3.27-8.69,5.05-6.4,4.05-10.02,9.88-10.25,17.49-.22,7.23-.07,14.47-.07,21.7,0,3.1,.17,3.24,2.86,1.78,13.27-7.16,26.53-14.36,39.79-21.55,2.48-1.35,2.86-1.2,2.87,1.58,.04,7.06-.03,14.11,.04,21.18,.02,1.92-.74,3.05-2.45,3.94-13.5,6.94-26.93,14-40.45,20.88-2.3,1.17-2.88,2.41-1.96,4.77,2.64,6.72,7.31,11.42,13.6,14.88,9.5,5.24,18.79,10.84,28.24,16.18,2.17,1.23,3.1,2.73,3.05,5.28-.14,7.32-.05,14.65-.06,21.97,0,3.56-.26,3.76-3.28,2.03-11.62-6.67-23.22-13.4-34.83-20.12-7.09-4.11-14.22-8.18-21.28-12.35C3.82,150.72-.07,143.84,.03,134.59c.13-12.26,.03-24.53,.03-36.79h0Z"/>
  <path class="cls-1" d="M175.94,97.98c0,11.47-.07,22.94,.02,34.41,.07,10.59-3.9,18.82-13.46,24-2.79,1.51-5.5,3.16-8.26,4.75-16.14,9.27-32.28,18.54-48.42,27.81-2.8,1.6-3.03,1.48-3.03-1.71-.02-7.77,.04-15.53-.04-23.3-.02-1.93,.71-3.02,2.39-3.97,10.59-6.01,21.15-12.06,31.65-18.21,6.8-3.99,12.04-9.34,13.23-17.52,.39-2.67,0-5.44,0-8.16,0-4.5-.07-9,.03-13.5,.06-2.41-.76-2.48-2.6-1.46-6.79,3.76-13.62,7.46-20.44,11.15-7.22,3.9-14.46,7.74-21.67,11.66-1.88,1.02-2.56,.47-2.55-1.54,.02-6.71,.05-13.41-.03-20.12-.02-1.82,.95-2.62,2.36-3.42,14.13-7.97,28.22-16.04,42.36-24,1.86-1.05,2.49-2.34,2.56-4.44,.35-11.63,.43-23.28,.45-34.92,0-.83-.39-1.95,.57-2.41,.92-.44,1.59,.53,2.32,.95,2.76,1.57,5.42,3.33,8.26,4.76,9.97,5.04,14.41,13.24,14.33,24.24-.08,11.64-.02,23.3-.02,34.94h-.02Z"/>
</svg>