<svg width="18" height="19" viewBox="0 0 18 19" fill="none" xmlns="http://www.w3.org/2000/svg">
<path d="M15.3176 2.7436C11.735 1.85965 8.09988 1.20481 4.4341 0.78306C3.96335 0.70039 3.47851 0.768266 3.04856 0.977036C2.89607 1.05748 2.76649 1.1753 2.67198 1.31949C2.57747 1.46368 2.5211 1.6295 2.50817 1.80142C2.49314 1.96755 2.51943 2.13483 2.58471 2.28833C2.64998 2.44184 2.75218 2.57682 2.88226 2.68125C3.25884 2.95447 3.70628 3.11323 4.17085 3.13849C6.93838 3.45951 9.68764 3.92197 12.4079 4.52404C8.66829 6.87067 5.14029 9.53869 1.8639 12.4979L1.33738 12.9759C1.13648 13.1629 0.977145 13.3153 0.866301 13.44C0.754086 13.5566 0.660589 13.6898 0.589174 13.8349C0.519309 13.9855 0.477076 14.1474 0.46448 14.3129C0.436233 14.5446 0.460856 14.7796 0.536447 15.0004C0.612037 15.2211 0.736634 15.4219 0.900931 15.5876C1.32896 15.9659 1.87502 16.1838 2.44585 16.2042C5.86614 16.5849 9.25369 17.217 12.5811 18.0955C12.956 18.2376 13.3701 18.2376 13.745 18.0955C13.8945 18.0212 14.0259 17.9152 14.13 17.7847C14.2342 17.6543 14.3085 17.5026 14.3477 17.3404C14.3988 17.1883 14.4136 17.0263 14.3907 16.8675C14.3678 16.7086 14.308 16.5574 14.2161 16.4259C13.9524 16.116 13.5905 15.9057 13.1907 15.8301C10.3867 15.0917 7.54134 14.5203 4.66962 14.119C7.77333 11.4835 11.0891 9.10845 14.5832 7.01803C15.1713 6.68658 15.7424 6.32587 16.2944 5.93728C16.6239 5.65516 16.8525 5.27335 16.9456 4.84964C17.2504 3.80355 16.7031 3.08999 15.3176 2.7436Z" fill="#572A4D"/>
</svg>
